<?xml version="1.0" encoding="utf-8"?>
<!-- Generator: Adobe Illustrator 16.0.4, SVG Export Plug-In . SVG Version: 6.00 Build 0)  -->
<!DOCTYPE svg PUBLIC "-//W3C//DTD SVG 1.1//EN" "http://www.w3.org/Graphics/SVG/1.1/DTD/svg11.dtd">
<svg version="1.1" id="Layer_1" xmlns="http://www.w3.org/2000/svg" xmlns:xlink="http://www.w3.org/1999/xlink" x="0px" y="0px"
	 width="45px" height="45px" viewBox="0 0 45 45" style="enable-background:new 0 0 45 45;" xml:space="preserve">
<style type="text/css">
<![CDATA[
	.st0{fill:#E65C47;}
	.st1{fill:#CC2E16;}
]]>
</style>
<g>
	<polygon class="st0" points="22.5,30.8 9,44.3 0.7,36 14.2,22.5 0.7,9 9,0.7 22.5,14.2 36,0.7 44.3,9 30.8,22.5 44.3,36 36,44.3 	
		"/>
	<g>
		<path class="st1" d="M9,1.4l12.8,12.8l0.7,0.7l0.7-0.7L36,1.4L43.6,9L30.8,21.8l-0.7,0.7l0.7,0.7L43.6,36L36,43.6L23.2,30.8
			l-0.7-0.7l-0.7,0.7L9,43.6L1.4,36l12.8-12.8l0.7-0.7l-0.7-0.7L1.4,9L9,1.4 M9,0L0,9l13.5,13.5L0,36l9,9l13.5-13.5L36,45l9-9
			L31.5,22.5L45,9l-9-9L22.5,13.5L9,0L9,0z"/>
	</g>
</g>
</svg>
